# xmcd
#
# Track frame offsets: 
#        150
#        21725
#        43887
#        67870
#        84995
#        105177
#        132702
#        154232
#        183215
#        204810
#
# Disc length: 3208 seconds
#
# Revision: 1
# Processed by: cddbd v1.5.2PL0 Copyright (c) Steve Scherf et al.
# Submitted via: ExactAudioCopy v0.95b4
#
DISCID=7f0c860a
DTITLE=Tran Thai Hoa - Coi Vang
DYEAR=2004
DGENRE=Ballad
TTITLE0=Thuo Ay Co Em
TTITLE1=Hat Mua Buon
TTITLE2=Chuyen Tinh Buon
TTITLE3=Mot Thoang Mo Phai
TTITLE4=Coi Vang
TTITLE5=Hai Nam Tinh Lan Dan
TTITLE6=Tra Lai Em Yeu
TTITLE7=Mua Hoa Bo Lai
TTITLE8=Nghe Nhung Tan Phai
TTITLE9=Ao Anh Sut Chi
EXTD=HongMusic.file
EXTT0=
EXTT1=
EXTT2=
EXTT3=
EXTT4=
EXTT5=
EXTT6=
EXTT7=
EXTT8=
EXTT9=
PLAYORDER=
